<svg id="visual" viewBox="0 0 540 960" width="540" height="960" xmlns="http://www.w3.org/2000/svg" xmlns:xlink="http://www.w3.org/1999/xlink" version="1.1"><path d="M0 789L12.8 792.5C25.7 796 51.3 803 77 796.5C102.7 790 128.3 770 154 766.5C179.7 763 205.3 776 231.2 779.3C257 782.7 283 776.3 308.8 782.2C334.7 788 360.3 806 386 804.7C411.7 803.3 437.3 782.7 463 779.5C488.7 776.3 514.3 790.7 527.2 797.8L540 805L540 961L527.2 961C514.3 961 488.7 961 463 961C437.3 961 411.7 961 386 961C360.3 961 334.7 961 308.8 961C283 961 257 961 231.2 961C205.3 961 179.7 961 154 961C128.3 961 102.7 961 77 961C51.3 961 25.7 961 12.8 961L0 961Z" fill="#2ad2aa"></path><path d="M0 802L12.8 807.3C25.7 812.7 51.3 823.3 77 827.2C102.7 831 128.3 828 154 824.2C179.7 820.3 205.3 815.7 231.2 815.5C257 815.3 283 819.7 308.8 826.8C334.7 834 360.3 844 386 840.5C411.7 837 437.3 820 463 816.5C488.7 813 514.3 823 527.2 828L540 833L540 961L527.2 961C514.3 961 488.7 961 463 961C437.3 961 411.7 961 386 961C360.3 961 334.7 961 308.8 961C283 961 257 961 231.2 961C205.3 961 179.7 961 154 961C128.3 961 102.7 961 77 961C51.3 961 25.7 961 12.8 961L0 961Z" fill="#349d8a"></path><path d="M0 893L12.8 896.5C25.7 900 51.3 907 77 906.5C102.7 906 128.3 898 154 895.7C179.7 893.3 205.3 896.7 231.2 893.5C257 890.3 283 880.7 308.8 877.8C334.7 875 360.3 879 386 879.7C411.7 880.3 437.3 877.7 463 878.7C488.7 879.7 514.3 884.3 527.2 886.7L540 889L540 961L527.2 961C514.3 961 488.7 961 463 961C437.3 961 411.7 961 386 961C360.3 961 334.7 961 308.8 961C283 961 257 961 231.2 961C205.3 961 179.7 961 154 961C128.3 961 102.7 961 77 961C51.3 961 25.7 961 12.8 961L0 961Z" fill="#3b6a64"></path></svg>